<svg width="804" height="483" viewBox="0 0 804 483" fill="none" xmlns="http://www.w3.org/2000/svg">
<g opacity="0.1">
<rect opacity="0.9" width="543.82" height="543.82" rx="48" transform="matrix(0.829038 -0.559193 0.838671 0.544639 -102.979 509.465)" stroke="white" stroke-opacity="0.65" stroke-width="2"/>
<rect opacity="0.9" width="543.82" height="543.82" rx="48" transform="matrix(0.829038 -0.559193 0.838671 0.544639 -102.965 496.629)" stroke="white" stroke-opacity="0.65" stroke-width="2"/>
<rect opacity="0.9" width="543.82" height="543.82" rx="48" transform="matrix(0.829038 -0.559193 0.838671 0.544639 -102.979 483.794)" stroke="white" stroke-opacity="0.65" stroke-width="2"/>
<rect width="543.82" height="543.82" rx="48" transform="matrix(0.829038 -0.559193 0.838671 0.544639 -102.979 470.959)" stroke="white" stroke-opacity="0.65" stroke-width="2"/>
<rect width="543.82" height="543.82" rx="48" transform="matrix(0.829038 -0.559193 0.838671 0.544639 -102.996 458.124)" stroke="white" stroke-opacity="0.65" stroke-width="2"/>
<rect width="543.82" height="543.82" rx="48" transform="matrix(0.829038 -0.559193 0.838671 0.544639 -102.982 445.289)" stroke="white" stroke-opacity="0.65" stroke-width="2"/>
<rect width="543.82" height="543.82" rx="48" transform="matrix(0.829038 -0.559193 0.838671 0.544639 -102.992 432.453)" stroke="white" stroke-opacity="0.65" stroke-width="2"/>
<rect width="543.82" height="543.82" rx="48" transform="matrix(0.829038 -0.559193 0.838671 0.544639 -102.986 419.618)" stroke="white" stroke-opacity="0.65" stroke-width="2"/>
<rect width="543.82" height="543.82" rx="48" transform="matrix(0.829038 -0.559193 0.838671 0.544639 -102.986 406.782)" stroke="white" stroke-opacity="0.65" stroke-width="2"/>
<rect width="543.82" height="543.82" rx="48" transform="matrix(0.829038 -0.559193 0.838671 0.544639 -102.986 393.947)" stroke="white" stroke-opacity="0.65" stroke-width="2"/>
<rect width="543.82" height="543.82" rx="48" transform="matrix(0.829038 -0.559193 0.838671 0.544639 -102.986 381.112)" stroke="white" stroke-opacity="0.65" stroke-width="2"/>
<rect width="543.82" height="543.82" rx="48" transform="matrix(0.829038 -0.559193 0.838671 0.544639 -102.986 368.277)" stroke="white" stroke-opacity="0.65" stroke-width="2"/>
<rect width="543.82" height="543.82" rx="48" transform="matrix(0.829038 -0.559193 0.838671 0.544639 -102.986 355.441)" stroke="white" stroke-opacity="0.65" stroke-width="2"/>
<rect width="543.82" height="543.82" rx="48" transform="matrix(0.829038 -0.559193 0.838671 0.544639 -102.992 342.606)" stroke="white" stroke-opacity="0.65" stroke-width="2"/>
<rect width="543.82" height="543.82" rx="48" transform="matrix(0.829038 -0.559193 0.838671 0.544639 -102.992 329.771)" stroke="white" stroke-opacity="0.65" stroke-width="2"/>
<rect width="543.82" height="543.82" rx="48" transform="matrix(0.829038 -0.559193 0.838671 0.544639 -103 316.936)" stroke="white" stroke-opacity="0.65" stroke-width="2"/>
<rect width="543.82" height="543.82" rx="48" transform="matrix(0.829038 -0.559193 0.838671 0.544639 -102.986 304.101)" stroke="white" stroke-opacity="0.65" stroke-width="2"/>
</g>
</svg>
